# xmcd
#
# Track frame offsets:
#	150
#	19291
#	37050
#	52777
#	70473
#	86327
#	103320
#	123184
#	138166
#	151569
#	164784
#	178440
#	198879
#	213881
#	232269
#	244735
#	260779
#	276058
#	291945
#
# Disc length: 4135 seconds
# Revision: 0
# Processed by: cddbd v1.5.2PL0 Copyright (c) Steve Scherf et al.
# Submitted via: dBpowerAMP V12.0
#
DISCID=1d102513
DTITLE=Various Artist - Country Radio 2012
DYEAR=2012
DGENRE=Country
TTITLE0=Jason Kirkness - I Play The Music
TTITLE1=Taylor Swift - Ours
TTITLE2=Dallas Smith - Somebody Somewhere
TTITLE3=Stellas The - In This House
TTITLE4=Kira Isabella - A Real Good Radio
TTITLE5=George Strait - Love's Gonna Make It Alright
TTITLE6=Faith Hill - Come Home
TTITLE7=Tim McGraw - Better Than I Used To Be
TTITLE8=Clayton Bellamy - Everyone's A Dreamer
TTITLE9=Codie Prevost - Finish What He Started
TTITLE10=Donny Parenteau - Fiddleback
TTITLE11=Paul Brandt - I Was There
TTITLE12=Trace Adkins - Million Dollar View
TTITLE13=Farm The - Home Sweet Home
TTITLE14=Jerry Sereda - My Hearts Got A Memory
TTITLE15=Kip Moore - Somethin Bout A Truck
TTITLE16=Craig Moritz - With You
TTITLE17=Dean Brody - Woodshed Is Full
TTITLE18=Brent Anderson - Amy's Song
EXTD=
EXTT0=
EXTT1=
EXTT2=
EXTT3=
EXTT4=
EXTT5=
EXTT6=
EXTT7=
EXTT8=
EXTT9=
EXTT10=
EXTT11=
EXTT12=
EXTT13=
EXTT14=
EXTT15=
EXTT16=
EXTT17=
EXTT18=
PLAYORDER=
